<svg width="56" height="56" viewBox="0 0 56 56" fill="none" xmlns="http://www.w3.org/2000/svg">
<path d="M0 0H56V56H0V0Z" fill="#F7DF1E"/>
<path d="M15.0002 47.0414L19.2954 44.3688C20.1242 45.8794 20.8779 47.1575 22.6861 47.1575C24.4193 47.1575 25.5123 46.4605 25.5123 43.7491V25.3102H30.7869V43.8258C30.7869 49.4426 27.5845 51.9993 22.9122 51.9993C18.6927 51.9993 16.2434 49.7526 15 47.041M33.6518 46.4603L37.9466 43.9038C39.0772 45.8021 40.5467 47.1965 43.1461 47.1965C45.3319 47.1965 46.7254 46.073 46.7254 44.5235C46.7254 42.6642 45.2937 42.0055 42.8824 40.9212L41.564 40.3397C37.7584 38.6745 35.2342 36.5826 35.2342 32.1666C35.2342 28.0991 38.2482 25 42.958 25C46.3113 25 48.7226 26.201 50.4556 29.3387L46.3485 32.0505C45.4441 30.3849 44.4649 29.7264 42.9578 29.7264C41.4129 29.7264 40.4333 30.7336 40.4333 32.0505C40.4333 33.6773 41.4129 34.3363 43.6734 35.3434L44.992 35.9243C49.4757 37.9002 52 39.9143 52 44.4462C52 49.3274 48.2701 52 43.259 52C38.3612 52 35.1962 49.5984 33.6516 46.4605" fill="black"/>
</svg>
