<svg width="47" height="47" viewBox="0 0 47 47" fill="none" xmlns="http://www.w3.org/2000/svg">
<path d="M42.7273 0H4.27273C1.91205 0 0 1.91205 0 4.27273V42.7273C0 45.088 1.91205 47 4.27273 47H42.7273C45.088 47 47 45.088 47 42.7273V4.27273C47 1.91205 45.088 0 42.7273 0ZM14.8563 38.4545H8.554V18.1762H14.8563V38.4545ZM11.641 15.2771C9.60936 15.2771 7.9665 13.63 7.9665 11.6026C7.9665 9.57518 9.6115 7.93018 11.641 7.93018C13.6663 7.93018 15.3135 9.57732 15.3135 11.6026C15.3135 13.63 13.6663 15.2771 11.641 15.2771ZM38.4631 38.4545H32.1651V28.5931C32.1651 26.241 32.1224 23.2159 28.89 23.2159C25.6107 23.2159 25.1065 25.7774 25.1065 28.4222V38.4545H18.8085V18.1762H24.8545V20.947H24.9399C25.7816 19.3533 27.8368 17.672 30.9025 17.672C37.2838 17.672 38.4631 21.8721 38.4631 27.3326V38.4545Z" fill="#535353"/>
</svg>
