<svg width="72" height="72" viewBox="0 0 72 72" fill="none" xmlns="http://www.w3.org/2000/svg">
<path d="M63.49 37.4636C68.5547 40.4319 71.9584 45.9163 71.9691 52.1961C71.9871 61.6489 64.3095 69.3259 54.8241 69.3411C45.3387 69.3591 37.6347 61.7079 37.6172 52.2551C37.606 45.9754 40.99 40.4803 46.0457 37.4917L50.9811 45.8044C51.1043 46.0125 51.034 46.2808 50.8337 46.4175C48.9662 47.6831 47.7422 49.8184 47.7467 52.2377C47.7535 56.1161 50.9153 59.256 54.8061 59.247C58.698 59.2403 61.8463 56.0914 61.8396 52.2135C61.8357 49.7947 60.6049 47.6629 58.7329 46.404C58.5332 46.2679 58.4607 45.9996 58.5833 45.7909L63.49 37.4636Z" fill="#128DFF"/>
<path d="M25.5809 37.3625C23.0179 35.9321 20.1308 35.1831 17.1957 35.1873C7.70802 35.1873 0.0197754 42.8513 0.0197754 52.3041C0.0197754 61.7564 7.70802 69.421 17.1957 69.421C26.7278 69.421 34.6051 61.3565 34.3655 51.8643H24.6972C24.4424 51.8643 24.2427 52.0797 24.2405 52.3323C24.2163 56.114 21.05 59.3264 17.1957 59.3264C13.3021 59.3264 10.1493 56.182 10.1493 52.3036C10.1493 48.4251 13.3021 45.2813 17.1957 45.2813C18.2133 45.2813 19.1825 45.4968 20.0566 45.8855C20.272 45.98 20.5268 45.908 20.6455 45.7077L25.5809 37.3625Z" fill="#8BDA67"/>
<path d="M26.969 34.677C21.911 31.6997 18.5164 26.2091 18.5164 19.9294C18.5164 10.4766 26.2069 2.8125 35.6923 2.8125C45.1777 2.8125 52.8682 10.4766 52.8682 19.9294C52.8682 26.2091 49.4735 31.6997 44.4155 34.677L39.4931 26.3588C39.3699 26.1506 39.4402 25.8823 39.6427 25.7456C41.5102 24.4823 42.7382 22.3487 42.7382 19.9294C42.7382 16.0515 39.5831 12.9071 35.6917 12.9071C31.8004 12.9071 28.6453 16.0515 28.6453 19.9299C28.6453 22.3487 29.8732 24.4822 31.7413 25.7462C31.9438 25.8823 32.0135 26.1501 31.8904 26.3593L26.969 34.677Z" fill="#FF2A44"/>
</svg>
