<svg width="81" height="43" viewBox="0 0 81 43" fill="none" xmlns="http://www.w3.org/2000/svg">
<path d="M0 21.5C0 33.3736 18.1326 43 40.5 43C62.8674 43 81 33.3736 81 21.5C81 9.62637 62.8668 0 40.5 0C18.1332 0 0 9.62637 0 21.5Z" fill="url(#paint0_radial_182_6)"/>
<path d="M40.5 41C61.7626 41 79 32.2689 79 21.5C79 10.7299 61.7626 2 40.5 2C19.2374 2 2 10.7299 2 21.5C2 32.2689 19.2374 41 40.5 41Z" fill="#777BB3"/>
<path d="M22.0513 23.7313C23.8871 23.7313 25.2569 23.3941 26.1239 22.7295C26.9823 22.0708 27.5746 20.9309 27.8855 19.3411C28.1747 17.8548 28.0642 16.8176 27.5568 16.2571C27.0389 15.6849 25.9182 15.3948 24.2263 15.3948H21.2922L19.6667 23.7313H22.0513ZM12.4555 34C12.3882 33.9999 12.3218 33.985 12.2609 33.9563C12.2001 33.9276 12.1464 33.8858 12.1036 33.834C12.0609 33.7822 12.0302 33.7216 12.0138 33.6565C11.9974 33.5915 11.9956 33.5237 12.0086 33.4579L16.3184 11.3673C16.3388 11.2641 16.3945 11.171 16.476 11.104C16.5575 11.0371 16.6598 11.0003 16.7654 11H26.0556C28.9752 11 31.1482 11.7897 32.5148 13.3473C33.8872 14.9122 34.3118 17.1018 33.7748 19.8525C33.5559 20.9728 33.1799 22.0132 32.6574 22.9456C32.1136 23.9047 31.4195 24.7712 30.6014 25.5123C29.5951 26.4499 28.456 27.1308 27.2183 27.5309C26.001 27.9264 24.4366 28.1267 22.5713 28.1267H18.8089L17.7349 33.632C17.7146 33.7356 17.6588 33.829 17.577 33.8961C17.4953 33.9633 17.3926 34 17.2866 34H12.4555Z" fill="black"/>
<path d="M21.722 16.1025H24.1776C26.1384 16.1025 26.8193 16.5321 27.0509 16.7884C27.434 17.2129 27.5072 18.1092 27.2598 19.3784C26.9828 20.8 26.4691 21.8084 25.7326 22.374C24.9791 22.9535 23.7522 23.247 22.0893 23.247H20.3311L21.722 16.1025ZM25.9339 11.0006H17.0147C16.8113 11.0006 16.6142 11.0712 16.4572 11.2002C16.3002 11.3293 16.193 11.5087 16.1539 11.708L12.0158 32.9588C11.9914 33.0854 11.9953 33.2158 12.0272 33.3408C12.0591 33.4657 12.1182 33.582 12.2004 33.6815C12.2826 33.7809 12.3857 33.8611 12.5025 33.9161C12.6193 33.9712 12.7469 33.9998 12.876 34H17.5145C17.7179 33.9998 17.9149 33.9291 18.0718 33.8C18.2287 33.6708 18.3358 33.4913 18.3747 33.292L19.3371 28.3502H22.5879C24.4256 28.3502 25.973 28.1499 27.1866 27.7556C28.4343 27.3512 29.5822 26.6653 30.5983 25.7167C31.4165 24.9731 32.1108 24.1042 32.655 23.1425C33.1794 22.2059 33.5568 21.1603 33.7752 20.0366C34.3179 17.2507 33.8768 15.0204 32.465 13.408C31.0665 11.81 28.8691 11 25.9339 11V11.0006ZM19.2677 24.1213H22.0893C23.9594 24.1217 25.352 23.77 26.2671 23.0662C27.1822 22.3633 27.8002 21.1895 28.1212 19.5447C28.4275 17.965 28.2876 16.8506 27.7016 16.2014C27.1147 15.5522 25.94 15.2276 24.1776 15.2276H20.9994L19.2677 24.1213ZM25.9345 11.8736C28.6179 11.8736 30.5749 12.5765 31.8055 13.9824C33.0362 15.3882 33.4064 17.3505 32.9163 19.8691C32.7135 20.9071 32.3716 21.8557 31.8907 22.7148C31.409 23.5748 30.7798 24.3614 30.0032 25.0749C29.0776 25.9399 28.0485 26.5561 26.9159 26.9235C25.7837 27.2914 24.3412 27.4751 22.5885 27.4746H18.6151L17.5152 33.1245H12.8767L17.0153 11.8736H25.9345Z" fill="white"/>
<path d="M43.7958 28C43.7311 28.0001 43.6672 27.9859 43.6087 27.9586C43.5502 27.9313 43.4985 27.8914 43.4573 27.8419C43.4162 27.7924 43.3866 27.7344 43.3707 27.6722C43.3548 27.61 43.353 27.545 43.3654 27.482L45.1954 18.1327C45.3702 17.2433 45.3273 16.6057 45.0755 16.3352C44.9209 16.1705 44.4577 15.8943 43.0877 15.8943H39.771L37.4702 27.6486C37.4504 27.7476 37.3967 27.8367 37.318 27.9007C37.2394 27.9647 37.1408 27.9995 37.0392 27.9994H32.4389C32.3742 27.9994 32.3104 27.9853 32.2519 27.958C32.1934 27.9307 32.1418 27.8909 32.1006 27.8415C32.0594 27.792 32.0297 27.7342 32.0137 27.6721C31.9977 27.6099 31.9957 27.545 32.0079 27.482L36.1463 6.35135C36.1658 6.25236 36.2195 6.1632 36.298 6.09912C36.3765 6.03503 36.475 5.99999 36.5766 6H41.1769C41.2416 5.99996 41.3054 6.01409 41.3639 6.04139C41.4224 6.06868 41.474 6.10847 41.5152 6.1579C41.5564 6.20733 41.5861 6.26518 41.6021 6.32731C41.6181 6.38945 41.6201 6.45433 41.6079 6.51732L40.6096 11.6179H44.1769C46.8948 11.6179 48.7375 12.0926 49.8109 13.0715C50.9045 14.0692 51.2465 15.6644 50.8256 17.8145L48.9003 27.6486C48.8806 27.7475 48.8269 27.8365 48.7484 27.9005C48.6699 27.9645 48.5715 27.9994 48.4699 27.9994L43.7958 28Z" fill="black"/>
<path d="M41.6752 5H37.0457C36.8409 5.00005 36.6426 5.07069 36.4846 5.19985C36.3266 5.329 36.2187 5.50863 36.1796 5.70796L32.0161 26.9582C31.9914 27.0848 31.9952 27.2153 32.0272 27.3403C32.0593 27.4653 32.1188 27.5817 32.2015 27.6813C32.2842 27.7808 32.388 27.861 32.5056 27.9161C32.6231 27.9712 32.7515 27.9998 32.8815 28H37.5111C37.7158 28 37.9142 27.9293 38.0722 27.8001C38.2302 27.671 38.338 27.4914 38.3772 27.292L40.6231 15.8254H43.596C44.9726 15.8254 45.2622 16.117 45.273 16.1303C45.3568 16.2184 45.4666 16.631 45.285 17.5563L43.4436 26.9582C43.4189 27.0849 43.4227 27.2154 43.4548 27.3405C43.4869 27.4655 43.5465 27.582 43.6292 27.6815C43.712 27.7811 43.8159 27.8612 43.9336 27.9163C44.0512 27.9713 44.1796 27.9999 44.3097 28H49.0136C49.2182 27.9998 49.4164 27.9291 49.5743 27.7999C49.7322 27.6708 49.8399 27.4913 49.879 27.292L51.8163 17.4032C52.2703 15.0816 51.8817 13.3406 50.6607 12.2277C49.4949 11.1657 47.543 10.6498 44.6932 10.6498H41.639L42.5413 6.04242C42.5661 5.91569 42.5624 5.78509 42.5304 5.65997C42.4983 5.53485 42.4388 5.4183 42.356 5.31868C42.2732 5.21906 42.1693 5.13883 42.0516 5.08374C41.9339 5.02864 41.8054 5.00005 41.6752 5ZM41.6752 5.87551L40.5685 11.5241H44.6932C47.2886 11.5241 49.0786 11.9734 50.0632 12.872C51.0487 13.7698 51.3446 15.2247 50.9509 17.2369L49.0129 27.1251H44.3097L46.1518 17.7226C46.3613 16.6531 46.2841 15.9237 45.92 15.5344C45.556 15.1456 44.7817 14.9512 43.5973 14.9512H39.896L37.5111 27.1245H32.8809L37.045 5.87362H41.6752V5.87551Z" fill="white"/>
<path d="M58.5938 23.7313C60.3461 23.7313 61.6543 23.3941 62.4825 22.7295C63.3006 22.0708 63.8665 20.9309 64.1633 19.3411C64.4394 17.8548 64.3346 16.8176 63.8496 16.2571C63.3552 15.6849 62.2855 15.3948 60.6705 15.3948H57.8704L56.3175 23.7313H58.5938ZM49.4361 34C49.3717 34.0001 49.3081 33.9853 49.2499 33.9567C49.1917 33.9281 49.1402 33.8863 49.0993 33.8345C49.0584 33.7826 49.029 33.722 49.0133 33.6569C48.9975 33.5917 48.9958 33.5238 49.0082 33.4579L53.1221 11.3673C53.1416 11.2638 53.1949 11.1706 53.273 11.1036C53.351 11.0366 53.449 11 53.55 11H62.4172C65.2042 11 67.2784 11.7897 68.5822 13.3473C69.8928 14.9122 70.2975 17.1018 69.7849 19.8525C69.5888 20.9359 69.229 21.9799 68.7189 22.9456C68.1999 23.9047 67.5374 24.7712 66.7564 25.5123C65.7965 26.4499 64.7079 27.1308 63.5271 27.5309C62.3652 27.9264 60.8719 28.1267 59.0907 28.1267H55.5L54.4755 33.632C54.4561 33.7357 54.4027 33.8292 54.3245 33.8963C54.2463 33.9635 54.1482 34.0001 54.0469 34H49.4361Z" fill="black"/>
<path d="M57.722 16.1025H60.1775C62.1383 16.1025 62.8192 16.5321 63.0502 16.7884C63.4352 17.2129 63.5071 18.1092 63.2604 19.3784C62.9827 20.8 62.469 21.8084 61.7325 22.374C60.9784 22.9535 59.7515 23.247 58.0892 23.247H56.331L57.722 16.1025ZM61.9338 11.0006H53.0147C52.8114 11.0008 52.6145 11.0714 52.4576 11.2004C52.3007 11.3295 52.1936 11.5088 52.1545 11.708L48.0158 32.9588C47.9914 33.0855 47.9953 33.2159 48.0272 33.3409C48.0592 33.4659 48.1184 33.5822 48.2006 33.6817C48.2829 33.7812 48.3861 33.8613 48.503 33.9163C48.6198 33.9713 48.7474 33.9999 48.8766 34H53.5151C53.7185 33.9998 53.9155 33.9291 54.0724 33.8C54.2293 33.6708 54.3364 33.4913 54.3753 33.292L55.3377 28.3502H58.5878C60.4249 28.3502 61.9729 28.1499 63.1859 27.7556C64.4342 27.3512 65.5821 26.6653 66.5988 25.7161C67.4168 24.9727 68.1109 24.1039 68.6549 23.1425C69.18 22.2059 69.5561 21.1603 69.7751 20.0366C70.3178 17.2507 69.8773 15.0204 68.4649 13.408C67.0665 11.81 64.8696 11 61.9332 11L61.9338 11.0006ZM55.2677 24.1213H58.0886C59.9587 24.1217 61.3518 23.77 62.2677 23.0662C63.1827 22.3633 63.8004 21.1895 64.1205 19.5447C64.4281 17.965 64.2882 16.8506 63.7009 16.2014C63.1135 15.5522 61.9391 15.2276 60.1775 15.2276H57L55.2677 24.1213ZM61.9338 11.8736C64.6172 11.8736 66.5742 12.5765 67.8048 13.9824C69.0354 15.3882 69.4055 17.3505 68.9149 19.8691C68.713 20.9071 68.3713 21.8557 67.89 22.7148C67.4087 23.5748 66.7793 24.3614 66.0018 25.0749C65.0762 25.9399 64.0471 26.5561 62.9145 26.9235C61.7828 27.2914 60.3405 27.4751 58.5878 27.4746H54.6151L53.5139 33.1245H48.8754L53.014 11.8736H61.9338Z" fill="white"/>
<defs>
<radialGradient id="paint0_radial_182_6" cx="0" cy="0" r="1" gradientUnits="userSpaceOnUse" gradientTransform="translate(24.3165 7.55856) scale(53.1824 53.6694)">
<stop stop-color="#AEB2D5"/>
<stop offset="0.3" stop-color="#AEB2D5"/>
<stop offset="0.75" stop-color="#484C89"/>
<stop offset="1" stop-color="#484C89"/>
</radialGradient>
</defs>
</svg>
