<svg width="69" height="69" viewBox="0 0 69 69" fill="none" xmlns="http://www.w3.org/2000/svg">
<path d="M34.8083 0C17.007 0 18.1185 7.70253 18.1185 7.70253L18.1382 15.6826H35.1257V18.0784H11.3911C11.3911 18.0784 0 16.7894 0 34.7108C0 52.6328 9.9424 51.9972 9.9424 51.9972H15.876V43.6807C15.876 43.6807 15.5561 33.7604 25.6597 33.7604H42.5082C42.5082 33.7604 51.9742 33.913 51.9742 24.6322V9.28687C51.9742 9.28687 53.4119 0 34.8083 0ZM25.4414 5.36643C25.8428 5.36607 26.2404 5.44469 26.6113 5.5978C26.9823 5.75091 27.3193 5.9755 27.6031 6.25872C27.887 6.54194 28.1121 6.87823 28.2655 7.24834C28.419 7.61846 28.4978 8.01513 28.4974 8.41566C28.4978 8.81619 28.419 9.21287 28.2655 9.58298C28.1121 9.95309 27.887 10.2894 27.6031 10.5726C27.3193 10.8558 26.9823 11.0804 26.6113 11.2335C26.2404 11.3866 25.8428 11.4653 25.4414 11.4649C25.04 11.4653 24.6424 11.3866 24.2715 11.2335C23.9005 11.0804 23.5635 10.8558 23.2797 10.5726C22.9958 10.2894 22.7707 9.95309 22.6173 9.58298C22.4638 9.21287 22.385 8.81619 22.3854 8.41566C22.385 8.01513 22.4638 7.61846 22.6173 7.24834C22.7707 6.87823 22.9958 6.54194 23.2797 6.25872C23.5635 5.9755 23.9005 5.75091 24.2715 5.5978C24.6424 5.44469 25.04 5.36607 25.4414 5.36643Z" fill="url(#paint0_linear_182_7)"/>
<path d="M34.192 69C51.9933 69 50.8818 61.2975 50.8818 61.2975L50.862 53.3177H33.8743V50.9219H57.6089C57.6089 50.9219 69 52.2109 69 34.2889C69 16.3672 59.0576 17.0028 59.0576 17.0028H53.124V25.319C53.124 25.319 53.4439 35.2393 43.3403 35.2393H26.4918C26.4918 35.2393 17.0258 35.0867 17.0258 44.3678V59.7134C17.0258 59.7134 15.5883 69 34.1917 69M43.5586 63.6341C43.1572 63.6345 42.7596 63.5559 42.3887 63.4027C42.0177 63.2496 41.6807 63.025 41.3969 62.7418C41.113 62.4586 40.8879 62.1223 40.7345 61.7522C40.581 61.3821 40.5022 60.9854 40.5026 60.5849C40.5022 60.1843 40.5809 59.7876 40.7344 59.4175C40.8878 59.0473 41.1129 58.711 41.3968 58.4278C41.6806 58.1445 42.0177 57.9199 42.3886 57.7668C42.7596 57.6137 43.1571 57.535 43.5586 57.5354C43.96 57.535 44.3576 57.6136 44.7285 57.7668C45.0995 57.9199 45.4365 58.1445 45.7203 58.4277C46.0042 58.7109 46.2293 59.0472 46.3827 59.4173C46.5362 59.7874 46.615 60.1841 46.6146 60.5846C46.615 60.9851 46.5362 61.3818 46.3827 61.7519C46.2293 62.122 46.0042 62.4583 45.7203 62.7415C45.4365 63.0248 45.0995 63.2494 44.7285 63.4025C44.3576 63.5556 43.96 63.6345 43.5586 63.6341Z" fill="url(#paint1_linear_182_7)"/>
<defs>
<linearGradient id="paint0_linear_182_7" x1="673.868" y1="626.028" x2="4141.23" y2="4066.45" gradientUnits="userSpaceOnUse">
<stop stop-color="#387EB8"/>
<stop offset="1" stop-color="#366994"/>
</linearGradient>
<linearGradient id="paint1_linear_182_7" x1="1011.66" y1="1087.11" x2="4735.58" y2="4615.31" gradientUnits="userSpaceOnUse">
<stop stop-color="#FFE052"/>
<stop offset="1" stop-color="#FFC331"/>
</linearGradient>
</defs>
</svg>
