<svg width="72" height="72" viewBox="0 0 72 72" fill="none" xmlns="http://www.w3.org/2000/svg">
<path d="M28.8997 2.93947L25.4057 6.43326L30.1999 11.2272L35.22 16.247C36.3634 15.6814 37.6322 15.417 38.9063 15.4788C40.1805 15.5406 41.4177 15.9265 42.501 16.6001C43.5843 17.2736 44.4777 18.2125 45.0967 19.3278C45.7157 20.4432 46.0398 21.698 46.0383 22.9736C46.0112 24.1119 45.7462 25.2319 45.2602 26.2616L50.4309 31.2814C51.7869 30.498 53.3738 30.2122 54.9179 30.4734C56.4621 30.7345 57.8667 31.5262 58.8897 32.712C59.6045 33.3974 60.1697 34.2233 60.5499 35.1378C60.93 36.0522 61.1168 37.0354 61.0985 38.0255C61.1001 40.0026 60.3291 41.9022 58.9499 43.3189C58.256 44.0436 57.4198 44.617 56.4937 45.0032C55.5676 45.3893 54.5716 45.5798 53.5684 45.5628C52.576 45.5784 51.5907 45.3929 50.6719 45.0177C49.7531 44.6424 48.9197 44.085 48.222 43.3791C47.0399 42.3477 46.2533 40.9373 45.9968 39.3896C45.7404 37.8419 46.0301 36.2532 46.8164 34.8956L41.7963 29.7252C41.5427 29.8399 41.2829 29.9405 41.0182 30.0264V46.0396C42.4754 46.5587 43.7375 47.5139 44.6327 48.7754C45.5464 50.0294 46.0385 51.541 46.0383 53.0925C46.058 54.0864 45.8725 55.0738 45.4933 55.9928C45.1141 56.9118 44.5494 57.7427 43.8345 58.4336C42.4676 59.7988 40.6255 60.5822 38.6939 60.6197C37.2981 60.6633 35.918 60.3155 34.7097 59.6156C33.5013 58.9157 32.513 57.8916 31.8564 56.6592C31.1998 55.4268 30.9012 54.0353 30.9944 52.6421C31.0876 51.2488 31.5688 49.9094 32.3837 48.7754C33.2789 47.5139 34.5409 46.5587 35.9981 46.0396V30.0264C34.5377 29.5133 33.2741 28.5568 32.3837 27.2906C31.4668 26.0383 30.9743 24.5256 30.978 22.9736C30.9759 21.8317 31.2425 20.7054 31.7562 19.6856L21.967 9.89694L2.94339 28.902C2.01048 29.8341 1.27037 30.9409 0.76533 32.1592C0.260295 33.3774 0.000233249 34.6832 1.56829e-07 36.002C-0.000232935 37.3208 0.259367 38.6266 0.763972 39.8451C1.26858 41.0635 2.0083 42.1706 2.94088 43.103L28.8997 69.0605C30.7825 70.9427 33.3358 72 35.9981 72C38.6604 72 41.2137 70.9427 43.0965 69.0605L69.0604 43.098C70.9426 41.2153 72 38.6622 72 36C72 33.3378 70.9426 30.7847 69.0604 28.902L43.0965 2.93947C41.2137 1.05733 38.6604 0 35.9981 0C33.3358 0 30.7825 1.05733 28.8997 2.93947Z" fill="#E64A19"/>
</svg>
