<svg width="26" height="26" viewBox="0 0 26 26" fill="none" xmlns="http://www.w3.org/2000/svg">
<path d="M12.9907 0.0185714C5.80871 0.0185714 0 5.98 0 13.3529C0 19.1843 3.6374 24.1429 8.70378 25.9629C9.39044 26.13 9.27909 25.6471 9.27909 25.2943V22.9729C5.34475 23.4557 5.17773 20.7629 4.91792 20.3171C4.37973 19.3886 3.11777 19.1471 3.50749 18.7014C4.39829 18.2186 5.3262 18.8129 6.38401 20.4286C7.1449 21.5986 8.64811 21.3943 9.40899 21.2086C9.57602 20.5029 9.92862 19.89 10.4111 19.3886C6.32834 18.6457 4.62099 16.0829 4.62099 13.0371C4.62099 11.5514 5.08494 10.1957 6.03141 9.1C5.43754 7.29857 6.08708 5.75714 6.17987 5.51571C7.86866 5.36714 9.61313 6.76 9.7616 6.87143C10.7266 6.61143 11.8216 6.46286 13.0464 6.46286C14.2712 6.46286 15.3662 6.61143 16.3498 6.87143C16.6838 6.61143 18.2984 5.42286 19.8758 5.55286C19.9686 5.77571 20.5996 7.29857 20.0428 9.08143C20.9893 10.1771 21.4532 11.5514 21.4532 13.0371C21.4532 16.0829 19.7459 18.6457 15.6445 19.3886C15.9978 19.7439 16.2756 20.1672 16.4611 20.6329C16.6467 21.0971 16.7395 21.5986 16.7395 22.1V25.4614C16.758 25.7214 16.7395 26 17.1663 26C22.3069 24.2171 26 19.2214 26 13.3529C26 5.98 20.1913 0 13.0093 0L12.9907 0.0185714Z" fill="black"/>
</svg>
