<svg width="47" height="46" viewBox="0 0 47 46" fill="none" xmlns="http://www.w3.org/2000/svg">
<path d="M23.5 0C10.5221 0 0 10.4595 0 23.3601C0 34.3063 7.58267 43.4654 17.8052 46C17.6955 45.6846 17.625 45.3187 17.625 44.8651V40.8725C16.6713 40.8725 15.0733 40.8725 14.6718 40.8725C13.064 40.8725 11.6345 40.1853 10.9412 38.9083C10.1716 37.4891 10.0384 35.3186 8.131 33.9909C7.56504 33.549 7.99587 33.0449 8.648 33.113C9.85238 33.4517 10.8511 34.2732 11.7911 35.4918C12.7272 36.7124 13.1678 36.9888 14.9166 36.9888C15.7646 36.9888 17.0336 36.9402 18.2282 36.7533C18.8705 35.1317 19.9809 33.6386 21.338 32.9339C13.5125 32.1338 9.77796 28.2638 9.77796 23.0097C9.77796 20.7477 10.7473 18.5596 12.3943 16.7161C11.8538 14.8862 11.1743 11.1545 12.6019 9.73339C16.123 9.73339 18.2517 12.0032 18.7628 12.6164C20.5175 12.0188 22.4445 11.6801 24.4694 11.6801C26.4982 11.6801 28.433 12.0188 30.1916 12.6203C30.6969 12.011 32.8275 9.73339 36.3565 9.73339C37.79 11.1564 37.1026 14.9038 36.5562 16.7298C38.1934 18.5694 39.1569 20.7516 39.1569 23.0097C39.1569 28.2599 35.4282 32.128 27.6145 32.932C29.7647 34.0474 31.3333 37.1815 31.3333 39.5429V44.8651C31.3333 45.0675 31.2883 45.2135 31.2648 45.3868C40.422 42.1962 47 33.5529 47 23.3601C47 10.4595 36.4779 0 23.5 0Z" fill="#535353"/>
</svg>
