<svg width="47" height="47" viewBox="0 0 47 47" fill="none" xmlns="http://www.w3.org/2000/svg">
<path d="M13.7045 0C6.1473 0 0 6.15299 0 13.7122V33.2955C0 40.8527 6.15299 47 13.7122 47H33.2955C40.8527 47 47 40.847 47 33.2878V13.7045C47 6.1473 40.847 0 33.2878 0H13.7045ZM37.2083 7.83333C38.2893 7.83333 39.1667 8.71067 39.1667 9.79167C39.1667 10.8727 38.2893 11.75 37.2083 11.75C36.1273 11.75 35.25 10.8727 35.25 9.79167C35.25 8.71067 36.1273 7.83333 37.2083 7.83333ZM23.5 11.75C29.9801 11.75 35.25 17.0199 35.25 23.5C35.25 29.9801 29.9801 35.25 23.5 35.25C17.0199 35.25 11.75 29.9801 11.75 23.5C11.75 17.0199 17.0199 11.75 23.5 11.75ZM23.5 15.6667C21.4225 15.6667 19.43 16.492 17.961 17.961C16.492 19.43 15.6667 21.4225 15.6667 23.5C15.6667 25.5775 16.492 27.57 17.961 29.039C19.43 30.508 21.4225 31.3333 23.5 31.3333C25.5775 31.3333 27.57 30.508 29.039 29.039C30.508 27.57 31.3333 25.5775 31.3333 23.5C31.3333 21.4225 30.508 19.43 29.039 17.961C27.57 16.492 25.5775 15.6667 23.5 15.6667Z" fill="#535353"/>
</svg>
