<svg width="54" height="65" viewBox="0 0 54 65" fill="none" xmlns="http://www.w3.org/2000/svg">
<path d="M26.967 65L4.91442 58.5023L0 0H54L49.0805 58.4933L26.967 65Z" fill="#264DE4"/>
<path d="M44.81 53.8605L49 5H27V59L44.81 53.8605Z" fill="#2965F1"/>
<path d="M11.221 26.2969L11.8286 33.3606H27V26.2969H11.221ZM10 12L10.6162 19.0636H27V12H10ZM27 44.642L26.9703 44.6502L19.4199 42.526L18.9372 36.8925H12.1315L13.0812 47.9835L26.9688 52L27 51.9912V44.642Z" fill="#EBEBEB"/>
<path d="M42.775 26.2981L44 12H27.0002V19.0642H36.5628L35.9453 26.2981H27.0002V33.3623H35.3569L34.569 42.5241L27 44.6507V52L40.9125 47.9865L41.0145 46.7929L42.6095 28.195L42.775 26.2981Z" fill="white"/>
</svg>
