<svg width="54" height="61" viewBox="0 0 54 61" fill="none" xmlns="http://www.w3.org/2000/svg">
<path d="M4.91446 54.9022L0 0H54L49.079 54.8935L26.9672 61L4.91446 54.9022Z" fill="#E44F26"/>
<path d="M27 56L44.8101 51.1458L49 5H27V56Z" fill="#F1662A"/>
<path d="M27 24.5821H18.0284L17.4098 17.7107H27V11H10L10.1623 12.802L11.8272 31.2929H27V24.5821ZM27 42.0092L26.9693 42.0179L19.4191 40.001L18.9365 34.6493H12.1299L13.0797 45.1833L26.9693 49L27 48.9913V42.0092Z" fill="#EBEBEB"/>
<path d="M27 24.5829V31.294H35.3562L34.5702 39.9983L27 42.0175V49L40.9131 45.1852L41.0141 44.0519L42.608 26.385L42.7749 24.5829H27ZM27 11V17.7111H43.3918L43.528 16.2043L43.8375 12.8021L44 11H27Z" fill="white"/>
</svg>
