<svg width="77" height="52" viewBox="0 0 77 52" fill="none" xmlns="http://www.w3.org/2000/svg">
<path d="M52.6327 5.26458C52.2638 5.26458 52.0135 5.30925 51.7536 5.36987V5.41135H51.7985C51.9718 5.74319 52.267 5.98569 52.4851 6.28244C52.6584 6.62385 52.806 6.96526 52.9792 7.30349L53.0241 7.25563C53.3257 7.04503 53.4733 6.70681 53.4733 6.19309C53.345 6.04313 53.3257 5.89316 53.2166 5.74638C53.0883 5.5326 52.8124 5.42731 52.6391 5.2582L52.6327 5.26458ZM18.5121 47.3638H15.538C15.4537 42.6631 15.1647 37.9682 14.6717 33.2924H14.646L10.1223 47.3638H7.86042L3.36875 33.2924H3.33667C2.98554 37.9755 2.77691 42.6681 2.71104 47.3638H0C0.177528 41.0886 0.616 35.2069 1.31542 29.7187H5.005L9.28813 42.6861H9.31379L13.6354 29.7187H17.1485C17.925 36.1514 18.3827 42.033 18.5217 47.3638H18.5121ZM31.4 34.3454C30.1872 40.8737 28.5916 45.6174 26.6131 48.5763C25.0667 50.8609 23.3738 52.0021 21.5343 52C21.0467 52 20.4414 51.8532 19.7184 51.5597V49.9834C20.0735 50.0387 20.4863 50.0664 20.9568 50.0664C21.8167 50.0664 22.5086 49.8303 23.0326 49.358C23.6636 48.7837 23.9791 48.1402 23.9791 47.4276C23.9791 46.932 23.7331 45.9279 23.2412 44.4155L19.9879 34.3454H22.9075L25.24 41.8756C25.7683 43.5859 25.9875 44.7803 25.8977 45.4589C27.181 42.0596 28.074 38.3551 28.5766 34.3454H31.4ZM70.9427 47.3638H62.5047V29.7187H65.3441V45.194H70.9427V47.3638ZM60.291 47.7945L57.0313 46.1991C57.3222 45.9588 57.5949 45.6929 57.8495 45.4015C59.2376 43.7848 59.9306 41.3885 59.9285 38.2126C59.9285 32.3735 57.6238 29.4528 53.0145 29.4507C50.7558 29.4507 48.9912 30.192 47.7207 31.6747C46.339 33.2956 45.6482 35.6834 45.6482 38.838C45.646 41.9416 46.2599 44.2177 47.4897 45.6663C48.6105 46.9745 50.3035 47.6286 52.5685 47.6286C53.4155 47.6286 54.1909 47.5244 54.8946 47.3159L59.1456 49.7792L60.3006 47.7945H60.291ZM49.7292 43.8316C49.0084 42.6808 48.648 40.8344 48.648 38.2924C48.648 33.8466 50.0062 31.6236 52.7225 31.6236C54.147 31.6236 55.1919 32.1554 55.8571 33.219C56.5757 34.3741 56.9351 36.2067 56.9351 38.7168C56.9351 43.1987 55.5769 45.4408 52.8605 45.4429C51.4339 45.4429 50.3879 44.9111 49.7227 43.8475L49.7292 43.8316ZM44.4097 42.4755C44.4097 43.9773 43.8579 45.2068 42.7542 46.164C41.6549 47.1213 40.1748 47.5999 38.3139 47.5999C36.5718 47.5999 34.9002 47.0511 33.2672 45.9566L34.0276 44.4378C35.4307 45.1377 36.7033 45.4865 37.8455 45.4844C38.9107 45.4844 39.748 45.2504 40.3576 44.7824C40.6631 44.5547 40.9097 44.258 41.077 43.9168C41.2444 43.5756 41.3277 43.1997 41.3201 42.8201C41.3201 41.7671 40.5822 40.8737 39.2411 40.1239C37.9963 39.4443 35.5098 38.0275 35.5098 38.0275C34.1559 37.048 33.4822 35.9982 33.4822 34.272C33.4822 32.8383 33.9848 31.6843 34.9901 30.81C35.9975 29.9251 37.3022 29.4837 38.9043 29.4858C40.5491 29.4858 42.0463 29.9219 43.3959 30.794L42.7125 32.3129C41.6366 31.8403 40.4751 31.5906 39.2989 31.579C38.3898 31.579 37.6904 31.7981 37.2006 32.2363C36.954 32.4409 36.7551 32.6964 36.6177 32.9851C36.4803 33.2738 36.4077 33.5888 36.405 33.9082C36.405 34.9548 37.1557 35.8546 38.5417 36.6204C39.8026 37.3064 42.35 38.7582 42.35 38.7582C43.7392 39.7314 44.429 40.7684 44.429 42.4851L44.4097 42.4755ZM74.5103 23.803C72.7939 23.7584 71.4624 23.9307 70.3491 24.4029C70.0283 24.5305 69.515 24.5305 69.47 24.9358C69.6465 25.1049 69.6722 25.3825 69.823 25.6186C70.0796 26.0462 70.5224 26.6173 70.933 26.9172C71.3779 27.2725 71.8346 27.6022 72.303 27.9064C73.1372 28.4169 74.0836 28.72 74.9017 29.2337C75.367 29.5337 75.8418 29.9134 76.3134 30.2325C76.5476 30.392 76.6984 30.6792 77 30.7813V30.7175C76.8524 30.526 76.8075 30.2484 76.6631 30.0346C76.4482 29.8209 76.2332 29.6294 76.0215 29.4188C75.3924 28.5925 74.6405 27.8662 73.7917 27.265C73.1051 26.7992 71.6036 26.1483 71.3212 25.3665L71.2795 25.3218C71.748 25.2804 72.3062 25.1113 72.7554 24.9836C73.4837 24.7922 74.151 24.8337 74.905 24.6454C75.2472 24.5561 75.5894 24.4561 75.9316 24.3455V24.154C75.5466 23.7711 75.2579 23.251 74.86 22.8937C73.7485 21.9296 72.5644 21.0517 71.318 20.2676C70.6443 19.8401 69.7909 19.5657 69.0818 19.2019C68.8252 19.0743 68.3952 19.0105 68.2477 18.7967C67.8627 18.3308 67.6381 17.7118 67.3654 17.1566C66.7362 15.9408 66.1508 14.7031 65.6104 13.4457C65.2254 12.6098 64.9912 11.777 64.5196 11.0112C62.3058 7.38326 59.9092 5.18481 56.2228 3.03422C55.4304 2.58751 54.4807 2.39606 53.4765 2.15994C52.9407 2.13442 52.4049 2.09613 51.8723 2.07379C51.5194 1.92383 51.1793 1.5186 50.8777 1.32396C49.6586 0.558169 46.5016 -1.10104 45.6032 1.09422C45.0257 2.47902 46.4599 3.84468 46.9572 4.54665C47.3261 5.03484 47.7913 5.59323 48.048 6.14204C48.1988 6.51217 48.2405 6.89188 48.3913 7.27796C48.7314 8.21605 49.0554 9.26263 49.5046 10.1401C49.7388 10.5868 49.9955 11.0559 50.297 11.4579C50.4703 11.6908 50.7655 11.7993 50.8328 12.1822C50.5312 12.6161 50.512 13.2479 50.3387 13.7776C49.5687 16.193 49.8703 19.1796 50.9612 20.9569C51.3045 21.4865 52.1226 22.6607 53.2166 22.2108C54.1791 21.8279 53.9674 20.6154 54.2433 19.5465C54.3075 19.2913 54.2657 19.1222 54.3973 18.9499V18.9977C54.6989 19.5976 55.0005 20.1687 55.2764 20.7686C55.9373 21.8152 57.0923 22.9 58.058 23.6243C58.5713 24.0072 58.9788 24.6709 59.6205 24.907V24.8432H59.5723C59.4344 24.6582 59.2515 24.5688 59.0782 24.4189C58.672 24.0223 58.2966 23.5957 57.9553 23.1425C57.0542 21.9123 56.2528 20.6127 55.5587 19.2562C55.2058 18.5861 54.9106 17.865 54.6283 17.2045C54.5 16.9492 54.5 16.5663 54.285 16.4387C53.9642 16.9046 53.4925 17.3098 53.2583 17.8841C52.8509 18.8031 52.8092 19.9326 52.6552 21.1068C52.5685 21.1292 52.6102 21.1068 52.5685 21.1515C51.882 20.9856 51.6477 20.2772 51.3911 19.6837C50.7494 18.1681 50.6435 15.7335 51.1986 13.9882C51.3494 13.5415 51.991 12.1311 51.7344 11.7036C51.5996 11.2984 51.1761 11.0654 50.9419 10.7368C50.641 10.3088 50.3831 9.85243 50.1719 9.37431C49.6586 8.18095 49.4019 6.85997 48.8437 5.66662C48.587 5.11461 48.1378 4.53708 47.7721 4.02974C47.3646 3.4554 46.9155 3.05017 46.5914 2.37053C46.4855 2.13761 46.3347 1.75152 46.5048 1.49626C46.5497 1.32396 46.6395 1.25695 46.8064 1.20909C47.0887 0.979353 47.8812 1.27929 48.1603 1.40692C48.9527 1.726 49.6201 2.02593 50.2842 2.47264C50.5858 2.68323 50.9098 3.08846 51.2948 3.19376H51.744C52.4306 3.34373 53.2038 3.23843 53.8455 3.42669C54.9844 3.79043 56.0111 4.32011 56.9319 4.89445C59.7694 6.69661 62.0772 9.21307 63.6212 12.1886C63.8779 12.68 63.9902 13.1299 64.2244 13.6404C64.6736 14.6933 65.2286 15.7559 65.6842 16.7737C66.1334 17.7788 66.5665 18.8031 67.2114 19.6359C67.5322 20.0826 68.822 20.3155 69.3995 20.5484C69.8262 20.7399 70.4903 20.9154 70.8753 21.1483C71.6132 21.595 72.3319 22.1055 73.0249 22.5969C73.3778 22.8394 74.4462 23.3723 74.5103 23.803Z" fill="black"/>
</svg>
