<svg width="89" height="22" viewBox="0 0 89 22" fill="none" xmlns="http://www.w3.org/2000/svg">
<path d="M11.0582 4.75649L9.87401 5.96336C11.7548 7.88015 11.7548 11.0748 9.87401 12.9916C7.99325 14.9084 4.85864 14.9084 3.04753 12.9206C1.16677 11.0038 1.16677 7.80916 3.04753 5.89237L6.11248 2.7687L6.53043 2.34275V0L1.93301 4.6855C-0.644336 7.31221 -0.644336 11.5008 1.93301 14.0565C4.51035 16.6122 8.62017 16.6832 11.1279 14.0565C13.6355 11.5008 13.6355 7.38321 11.0582 4.75649Z" fill="#EE4C2C"/>
<path d="M8.5 5C8.77614 5 9 4.55228 9 4C9 3.44771 8.77614 3 8.5 3C8.22386 3 8 3.44771 8 4C8 4.55228 8.22386 5 8.5 5Z" fill="#EE4C2C"/>
<path d="M23.4386 10.8392H21.4737V16.1993H20V1H23.6491C27.4386 1 29.2632 2.98252 29.2632 5.6993C29.2632 9.07692 27.0175 10.8392 23.4386 10.8392ZM23.5789 2.54196H21.4737V9.51748L23.5088 9.44406C26.2456 9.37063 27.7193 8.26923 27.7193 5.91958C27.7895 3.71678 26.2456 2.54196 23.5789 2.54196ZM35.9298 16.1259L35.0877 18.5489C34.1053 21.2657 33.1228 22 31.6491 22C30.8772 22 30.2456 21.7797 29.614 21.486L30.0351 20.0909C30.5263 20.3846 31.0877 20.6049 31.6491 20.6049C32.4211 20.6049 33.0526 20.1643 33.8246 18.035L34.5263 16.0524L30.386 5.11189H31.9298L35.2281 14.2902L38.5263 5.11189H40L35.9298 16.1259Z" fill="black"/>
<path d="M44.8584 3.01731V16.7792H43.3262V3.01731H38V1.54545H50.1116V3.01731H44.8584ZM54.5622 17C51.4979 17 49.2361 14.7186 49.2361 11.1861C49.2361 7.65368 51.5708 5.2987 54.7082 5.2987C57.8455 5.2987 60.0343 7.58008 60.0343 11.1126C59.9614 14.645 57.6266 17 54.5622 17ZM54.5622 6.69697C52.2275 6.69697 50.6953 8.5368 50.6953 11.1861C50.6953 13.9091 52.2275 15.7489 54.5622 15.7489C56.897 15.7489 58.4292 13.9091 58.4292 11.2597C58.5021 8.4632 56.97 6.69697 54.5622 6.69697ZM63.7554 16.7056H62.2232V5.59307L63.7554 5.22511V7.58009C64.485 6.18182 65.5064 5.22511 66.9657 5.22511C67.6953 5.22511 68.3519 5.44589 68.9356 5.74026L68.5708 7.13853C68.0601 6.84416 67.4764 6.62338 66.8927 6.62338C65.7253 6.62338 64.6309 7.50649 63.7554 9.4935V16.7056ZM74.7725 17C71.4163 17 69.3734 14.5714 69.3734 11.1861C69.3734 7.72727 71.6352 5.2987 74.7725 5.2987C76.0858 5.2987 77.2532 5.66667 78.2017 6.25541L77.8369 7.58009C77.0343 6.99134 75.9399 6.69697 74.7725 6.69697C72.3648 6.69697 70.9056 8.4632 70.9056 11.1126C70.9056 13.8355 72.4378 15.6017 74.7725 15.6017C75.867 15.6017 77.0343 15.2338 77.8369 14.7186L78.2017 16.1169C77.2532 16.632 76.0858 17 74.7725 17ZM87.4678 16.7056V9.4935C87.4678 7.50649 86.6652 6.69697 85.133 6.69697C83.8197 6.69697 82.6524 7.35931 81.7039 8.24242V16.7056H80.1717V0.367965L81.7039 0V7.06493C82.8712 5.88744 84.3305 5.2987 85.5708 5.2987C87.6867 5.2987 89 6.69697 89 9.12554V16.7056H87.4678Z" fill="black"/>
</svg>
